<svg xmlns="http://www.w3.org/2000/svg" viewBox="0 0 512 512" width="512" height="512">

<defs>
  <radialGradient id="plate" cx="50%" cy="42%" r="62%">
    <stop offset="0%" stop-color="#3a2d33"/>
    <stop offset="100%" stop-color="#1d171c"/>
  </radialGradient>
  <radialGradient id="glowC" cx="50%" cy="50%" r="50%">
    <stop offset="0%" stop-color="#9bf3ea" stop-opacity="0.55"/>
    <stop offset="100%" stop-color="#9bf3ea" stop-opacity="0"/>
  </radialGradient>
  <radialGradient id="glowA" cx="50%" cy="50%" r="50%">
    <stop offset="0%" stop-color="#ffc56b" stop-opacity="0.55"/>
    <stop offset="100%" stop-color="#ffc56b" stop-opacity="0"/>
  </radialGradient>
  <linearGradient id="steel" x1="0" y1="0" x2="1" y2="1">
    <stop offset="0%" stop-color="#e8e0d4"/>
    <stop offset="55%" stop-color="#a8a094"/>
    <stop offset="100%" stop-color="#5f5852"/>
  </linearGradient>
  <linearGradient id="pebble" x1="0" y1="0" x2="0" y2="1">
    <stop offset="0%" stop-color="#c3cbb8"/>
    <stop offset="100%" stop-color="#6f7c70"/>
  </linearGradient>
  <linearGradient id="stoneG" x1="0" y1="0" x2="0" y2="1">
    <stop offset="0%" stop-color="#e2c79b"/>
    <stop offset="100%" stop-color="#9c7a5a"/>
  </linearGradient>
  <linearGradient id="brass" x1="0" y1="0" x2="1" y2="1">
    <stop offset="0%" stop-color="#ffe1a0"/>
    <stop offset="100%" stop-color="#a87632"/>
  </linearGradient>
  <linearGradient id="paper" x1="0" y1="0" x2="1" y2="1">
    <stop offset="0%" stop-color="#f6ead2"/>
    <stop offset="100%" stop-color="#d9c6a2"/>
  </linearGradient>
</defs>

<polygon points="256,14 466,135 466,377 256,498 46,377 46,135" fill="url(#plate)" stroke="#dcb573" stroke-width="6"/>
<polygon points="256,38 445,147 445,365 256,474 67,365 67,147" fill="none" stroke="#9c7440" stroke-width="2.5" stroke-opacity="0.8"/>

<ellipse cx="256" cy="420" rx="150" ry="22" fill="#000000" opacity="0.45"/>
<path d="M256,110 A150,150 0 0 1 256,410 Z" fill="#f3e6cf" stroke="#1d171c" stroke-width="4"/>
<path d="M256,110 A150,150 0 0 0 256,410" fill="none" stroke="#f3e6cf" stroke-width="5" stroke-dasharray="1 12" opacity="0.7"/>
<circle cx="256" cy="260" r="150" fill="none" stroke="#f3e6cf" stroke-width="4"/>
<g fill="#d8cdbb">
  <circle cx="318" cy="170" r="9"/><circle cx="352" cy="214" r="9"/><circle cx="370" cy="268" r="9"/>
  <circle cx="354" cy="322" r="9"/><circle cx="316" cy="366" r="9"/><circle cx="306" cy="222" r="9"/><circle cx="318" cy="292" r="9"/>
</g>
<path d="M256,110 L256,410" stroke="#1d171c" stroke-width="5"/>
<path d="M256,150 A110,110 0 0 0 256,370 Z" fill="#3b3438"/>
<path d="M256,180 A80,80 0 0 0 256,340 Z" fill="#2a2427" stroke="#dcb573" stroke-width="5"/>
<path d="M256,212 A48,48 0 0 0 256,308 Z" fill="#1c181a" stroke="#dcb573" stroke-width="4"/>
<path d="M232,248 a18,18 0 0 0 0,24" stroke="#6e6468" stroke-width="5" fill="none"/>
<path d="M150,440 L150,462 M200,446 L200,470 M256,448 L256,474 M312,446 L312,470 M362,440 L362,462" stroke="#dcb573" stroke-width="5" stroke-linecap="round" opacity="0.8"/>

</svg>
